<svg viewBox="0 0 109 28" fill="none" xmlns="http://www.w3.org/2000/svg">
<path d="M10.595 8.54999C12.4314 8.54999 13.92 7.06134 13.92 5.22499C13.92 3.38865 12.4314 1.89999 10.595 1.89999C8.75866 1.89999 7.27 3.38865 7.27 5.22499C7.27 7.06134 8.75866 8.54999 10.595 8.54999Z" fill="#965EEB"></path>
<path d="M22.245 14.47C26.2408 14.47 29.48 11.2308 29.48 7.235C29.48 3.23922 26.2408 0 22.245 0C18.2492 0 15.01 3.23922 15.01 7.235C15.01 11.2308 18.2492 14.47 22.245 14.47Z" fill="#00AAFF"></path>
<path d="M8.9 27.5C13.8153 27.5 17.8 23.5153 17.8 18.6C17.8 13.6847 13.8153 9.7 8.9 9.7C3.98467 9.7 0 13.6847 0 18.6C0 23.5153 3.98467 27.5 8.9 27.5Z" fill="#04E061"></path>
<path d="M24.325 26.38C27.2935 26.38 29.7 23.9735 29.7 21.005C29.7 18.0365 27.2935 15.63 24.325 15.63C21.3565 15.63 18.95 18.0365 18.95 21.005C18.95 23.9735 21.3565 26.38 24.325 26.38Z" fill="#FF4053"></path>
<path d="M41.36 1.625L32 26.065H37.03L38.95 20.965H48.89L50.82 26.065H55.81L46.5 1.625H41.35H41.36ZM40.68 16.475L43.95 7.875L47.2 16.475H40.68ZM61.82 19.765L57.76 8.895H52.96L59.5 26.065H64.25L70.69 8.905H65.89L61.83 19.775L61.82 19.765ZM76.72 8.895H72.15V26.065H76.71V8.905L76.72 8.895ZM74.42 7.655C74.872 7.6798 75.3243 7.61218 75.7492 7.45629C76.1742 7.30039 76.5629 7.05949 76.8917 6.7483C77.2204 6.43711 77.4822 6.06216 77.6612 5.64637C77.8401 5.23057 77.9324 4.78266 77.9324 4.33C77.9324 3.87734 77.8401 3.42943 77.6612 3.01363C77.4822 2.59784 77.2204 2.22289 76.8917 1.9117C76.5629 1.60051 76.1742 1.35961 75.7492 1.20371C75.3243 1.04782 74.872 0.980204 74.42 1.005C73.5697 1.05165 72.7696 1.4223 72.1841 2.04074C71.5987 2.65918 71.2724 3.47841 71.2724 4.33C71.2724 5.18159 71.5987 6.00082 72.1841 6.61926C72.7696 7.2377 73.5697 7.60835 74.42 7.655ZM85.76 4.315H81.2V8.865H78.53V13.005H81.2V20.305C81.2 24.435 83.48 26.225 86.69 26.225C87.7715 26.2373 88.8438 26.0262 89.84 25.605V21.345C89.3 21.545 88.73 21.645 88.14 21.655C86.75 21.655 85.74 21.115 85.74 19.255V13.005H89.84V8.905H85.74V4.315H85.76ZM99.46 8.585C97.6989 8.58318 95.9769 9.10386 94.5119 10.0811C93.0469 11.0584 91.9047 12.4483 91.23 14.075C90.3299 16.2523 90.3299 18.6977 91.23 20.875C92.1265 23.0576 93.853 24.7949 96.03 25.705C97.1109 26.1537 98.2697 26.3847 99.44 26.385C101.189 26.3681 102.894 25.8363 104.343 24.856C105.791 23.8757 106.918 22.4903 107.584 20.873C108.25 19.2557 108.424 17.478 108.086 15.7621C107.747 14.0462 106.91 12.4681 105.68 11.225C104.032 9.55913 101.793 8.6105 99.45 8.585H99.46ZM99.46 21.825C98.8191 21.8268 98.1858 21.6863 97.6058 21.4137C97.0258 21.1411 96.5136 20.7431 96.106 20.2485C95.6985 19.7539 95.4058 19.175 95.2491 18.5536C95.0925 17.9322 95.0757 17.2837 95.2 16.655C95.3652 15.8136 95.7765 15.0403 96.3817 14.4329C96.987 13.8255 97.7589 13.4116 98.5997 13.2434C99.4405 13.0752 100.312 13.1605 101.105 13.4883C101.897 13.8162 102.574 14.3719 103.05 15.085C103.527 15.7983 103.781 16.6371 103.78 17.495C103.78 18.0632 103.668 18.6257 103.45 19.1505C103.232 19.6753 102.913 20.152 102.511 20.5532C102.109 20.9545 101.632 21.2725 101.106 21.489C100.581 21.7055 100.018 21.8163 99.45 21.815V21.825H99.46Z" fill="black"></path>
</svg>
